<svg width="30" height="28" viewBox="0 0 30 28" fill="none" xmlns="http://www.w3.org/2000/svg">
<g clip-path="url(#clip0_2282_747)">
<path d="M13.1926 20.0217V15.8478H7.01871V20.0217H13.1926ZM16.7019 15.8478V20.0188H28.4441C29.2594 20.0188 29.9211 19.3547 29.9211 18.5366V2.96443C29.9211 1.32806 28.5977 0 26.9671 0H2.954C1.32339 0 0 1.32806 0 2.96443V25.0879C0 26.6858 1.2909 27.9812 2.88311 27.9812H19.9247C20.7076 27.9812 21.4608 27.67 22.0132 27.1126L25.3719 23.7421H16.7019V20.0188H13.2014V23.7421H6.36883C4.77957 23.7421 3.48868 22.4496 3.48868 20.8518V7.12055C3.48868 5.52273 4.77958 4.22727 6.37178 4.22727H13.2044V7.94466H7.01871V12.1215H22.9024V7.94466H16.7019V4.22727H23.5345C25.1267 4.22727 26.4176 5.52273 26.4176 7.12055V15.8389L16.7019 15.8478Z" fill="#06A6B2"/>
<path d="M146.099 12.4951H136.838V9.39723H133.751V18.7767C133.751 20.4397 135.095 21.7885 136.753 21.7885H146.182C147.839 21.7885 149.183 20.4397 149.183 18.7767V15.5099C149.183 13.8468 147.839 12.498 146.182 12.498H146.096L146.099 12.4951ZM145.499 18.6907H137.441C137.11 18.6907 136.841 18.4209 136.841 18.0889V16.1976C136.841 15.8656 137.11 15.5958 137.441 15.5958H145.499C145.83 15.5958 146.099 15.8656 146.099 16.1976V18.0889C146.099 18.4209 145.83 18.6907 145.499 18.6907ZM147.644 6.29941H136.841V9.39427H147.644V6.29941ZM163.161 6.24308C164.819 6.24308 166.163 7.5919 166.163 9.25494V12.5217C166.163 14.1848 164.819 15.5336 163.161 15.5336H154.417C154.087 15.5336 153.818 15.8034 153.818 16.1354V18.6285H150.731V15.4476C150.731 13.7846 152.075 12.4358 153.732 12.4358H162.479C162.81 12.4358 163.079 12.166 163.079 11.834V9.93972C163.079 9.60771 162.81 9.33794 162.479 9.33794H154.42C154.09 9.33794 153.821 9.60771 153.821 9.93972V10.8854H150.734V9.25198C150.734 7.58893 152.078 6.24012 153.735 6.24012H163.164L163.161 6.24308ZM153.815 18.6907H166.163V21.7885H153.815V18.6907ZM55.3255 18.6907V21.7885H42.8951C41.2379 21.7885 39.8938 20.4397 39.8938 18.7767V9.4002H42.9807V18.0889C42.9807 18.4209 43.2495 18.6907 43.5804 18.6907H55.3255ZM42.9807 9.39723V6.29941H55.3285V9.39723H42.9807ZM90.2861 12.7708C90.422 12.4269 90.4988 12.0534 90.4988 11.6621V9.31423C90.4988 7.65118 89.1547 6.30237 87.4975 6.30237H78.157V9.4002H86.8152C87.146 9.4002 87.4148 9.66996 87.4148 10.002V11.8933C87.4148 12.2253 87.146 12.4951 86.8152 12.4951H78.7566C78.4258 12.4951 78.157 12.2253 78.157 11.8933V9.4002H75.0671V21.7885H89.0425C90.6997 21.7885 92.0437 20.4397 92.0437 18.7767V15.5099C92.0437 14.2915 91.323 13.248 90.2891 12.7708H90.2861ZM78.154 18.0889V16.1976C78.154 15.8656 78.4228 15.5958 78.7537 15.5958H88.3542C88.685 15.5958 88.9538 15.8656 88.9538 16.1976V18.0889C88.9538 18.4209 88.685 18.6907 88.3542 18.6907H78.7537C78.4228 18.6907 78.154 18.4209 78.154 18.0889ZM74.0066 6.30237L66.9908 15.2431L66.7132 15.5929V21.7915H63.6262V15.584L63.3604 15.2431L56.3417 6.30237H59.9721L64.8344 12.498L65.1741 12.9279L65.5138 12.498L70.3761 6.30237H74.0066ZM123.95 21.7885L119.088 15.5958H113.691V21.7885H110.601V9.4002H113.691V11.8962C113.691 12.2283 113.959 12.498 114.29 12.498H122.346C122.677 12.498 122.946 12.2283 122.946 11.8962V10.0049C122.946 9.67292 122.677 9.40316 122.346 9.40316H113.691V6.30237H123.034C124.691 6.30237 126.035 7.65118 126.035 9.31423V12.587C126.035 14.25 124.691 15.5988 123.034 15.5988H122.718L127.58 21.7915H123.95V21.7885ZM107.52 9.39723H96.717V6.29941H107.52V9.39723ZM109.062 18.6907V21.7885H93.6271V9.39723H96.714V12.4951H105.969V15.5929H96.714V18.6907H109.062Z" fill="#E8F1F4"/>
<path d="M132.215 18.6907H129.128V21.7885H132.215V18.6907Z" fill="#06A6B2"/>
</g>
<defs>
<clipPath id="clip0_2282_747">
<rect width="30" height="28" fill="white"/>
</clipPath>
</defs>
</svg>
