<svg width="167" height="29" viewBox="0 0 167 29" fill="none" xmlns="http://www.w3.org/2000/svg">
<path d="M13.1926 20.9838V16.8099H7.01871V20.9838H13.1926ZM16.7019 16.8099V20.9809H28.4441C29.2594 20.9809 29.9211 20.3168 29.9211 19.4987V3.92652C29.9211 2.29016 28.5977 0.962097 26.9671 0.962097H2.954C1.32339 0.962097 0 2.29016 0 3.92652V26.05C0 27.6479 1.2909 28.9433 2.88311 28.9433H19.9247C20.7076 28.9433 21.4608 28.6321 22.0132 28.0747L25.3719 24.7042H16.7019V20.9809H13.2014V24.7042H6.36883C4.77957 24.7042 3.48868 23.4117 3.48868 21.8139V8.08265C3.48868 6.48482 4.77958 5.18937 6.37178 5.18937H13.2044V8.90676H7.01871V13.0836H22.9024V8.90676H16.7019V5.18937H23.5345C25.1267 5.18937 26.4176 6.48482 26.4176 8.08265V16.801L16.7019 16.8099Z" fill="#06A6B2"/>
<path d="M146.099 13.4572H136.838V10.3593H133.751V19.7388C133.751 21.4018 135.095 22.7506 136.753 22.7506H146.182C147.839 22.7506 149.183 21.4018 149.183 19.7388V16.472C149.183 14.8089 147.839 13.4601 146.182 13.4601H146.096L146.099 13.4572ZM145.499 19.6528H137.441C137.11 19.6528 136.841 19.383 136.841 19.051V17.1597C136.841 16.8277 137.11 16.5579 137.441 16.5579H145.499C145.83 16.5579 146.099 16.8277 146.099 17.1597V19.051C146.099 19.383 145.83 19.6528 145.499 19.6528ZM147.644 7.2615H136.841V10.3564H147.644V7.2615ZM163.161 7.20518C164.819 7.20518 166.163 8.55399 166.163 10.217V13.4838C166.163 15.1469 164.819 16.4957 163.161 16.4957H154.417C154.087 16.4957 153.818 16.7655 153.818 17.0975V19.5906H150.731V16.4097C150.731 14.7467 152.075 13.3979 153.732 13.3979H162.479C162.81 13.3979 163.079 13.1281 163.079 12.7961V10.9018C163.079 10.5698 162.81 10.3 162.479 10.3H154.42C154.09 10.3 153.821 10.5698 153.821 10.9018V11.8475H150.734V10.2141C150.734 8.55103 152.078 7.20222 153.735 7.20222H163.164L163.161 7.20518ZM153.815 19.6528H166.163V22.7506H153.815V19.6528ZM55.3255 19.6528V22.7506H42.8951C41.2379 22.7506 39.8938 21.4018 39.8938 19.7388V10.3623H42.9807V19.051C42.9807 19.383 43.2495 19.6528 43.5804 19.6528H55.3255ZM42.9807 10.3593V7.2615H55.3285V10.3593H42.9807ZM90.2861 13.7328C90.422 13.389 90.4988 13.0155 90.4988 12.6242V10.2763C90.4988 8.61328 89.1547 7.26447 87.4975 7.26447H78.157V10.3623H86.8152C87.146 10.3623 87.4148 10.6321 87.4148 10.9641V12.8554C87.4148 13.1874 87.146 13.4572 86.8152 13.4572H78.7566C78.4258 13.4572 78.157 13.1874 78.157 12.8554V10.3623H75.0671V22.7506H89.0425C90.6997 22.7506 92.0437 21.4018 92.0437 19.7388V16.472C92.0437 15.2536 91.323 14.2101 90.2891 13.7328H90.2861ZM78.154 19.051V17.1597C78.154 16.8277 78.4228 16.5579 78.7537 16.5579H88.3542C88.685 16.5579 88.9538 16.8277 88.9538 17.1597V19.051C88.9538 19.383 88.685 19.6528 88.3542 19.6528H78.7537C78.4228 19.6528 78.154 19.383 78.154 19.051ZM74.0066 7.26447L66.9908 16.2052L66.7132 16.555V22.7536H63.6262V16.5461L63.3604 16.2052L56.3417 7.26447H59.9721L64.8344 13.4601L65.1741 13.89L65.5138 13.4601L70.3761 7.26447H74.0066ZM123.95 22.7506L119.088 16.5579H113.691V22.7506H110.601V10.3623H113.691V12.8583C113.691 13.1904 113.959 13.4601 114.29 13.4601H122.346C122.677 13.4601 122.946 13.1904 122.946 12.8583V10.967C122.946 10.635 122.677 10.3653 122.346 10.3653H113.691V7.26447H123.034C124.691 7.26447 126.035 8.61328 126.035 10.2763V13.5491C126.035 15.2121 124.691 16.5609 123.034 16.5609H122.718L127.58 22.7536H123.95V22.7506ZM107.52 10.3593H96.717V7.2615H107.52V10.3593ZM109.062 19.6528V22.7506H93.6271V10.3593H96.714V13.4572H105.969V16.555H96.714V19.6528H109.062Z" fill="#E8F1F4"/>
<path d="M132.215 19.6528H129.128V22.7506H132.215V19.6528Z" fill="#06A6B2"/>
</svg>
